Title:
Pauline Detective

Country:
France/2012

Language:
French

Subtitle:
Franch forced

Director:
Marc Fitoussi

Writer:
Marc Fitoussi

Stars:
Sandrine Kiberlain, Audrey Lamy, Claudio Santamaria 

Synopsis:
After being dumped by her boyfriend, Pauline lets herself be dragged along by her sister to a luxurious hotel on the Italian riviera. Instead of indulging in the pleasures of loungeing around and doing nothing, Pauline convinces herself that a crime has been commited in the hotel and starts playing at being detective, carting along a seductive lifeguard with her into her investigations.

Imdb: 
http://www.imdb.com/title/tt2246909/

Trailer: 
http://www.bandes-annonces.fr/film-2012/bande-annonce-paulinedetective.html

Media Info:

General
Complete name:
Pauline.Detective.2012.BRRip.XviD.AC3.HORiZON-ArtSubs
Format                                   : AVI
Format/Info                              : Audio Video Interleave
File size                                : 1.36 GiB
Duration                                 : 1h 37mn
Overall bit rate                         : 2 005 Kbps
Writing application                      : FairUse Wizard - http://fairusewizard.com
Writing library                          : The best and REALLY easy backup tool

Video
ID                                       : 0
Format                                   : MPEG-4 Visual
Format profile                           : Advanced Simple@L5
Format settings, BVOP                    : 1
Format settings, QPel                    : No
Format settings, GMC                     : No warppoints
Format settings, Matrix                  : Default (MPEG)
Muxing mode                              : Packed bitstream
Codec ID                                 : XVID
Codec ID/Hint                            : XviD
Duration                                 : 1h 37mn
Bit rate                                 : 1 547 Kbps
Width                                    : 688 pixels
Height                                   : 368 pixels
Display aspect ratio                     : 1.85:1
Frame rate                               : 23.976 fps
Color space                              : YUV
Chroma subsampling                       : 4:2:0
Bit depth                                : 8 bits
Scan type                                : Progressive
Compression mode                         : Lossy
Bits/(Pixel*Frame)                       : 0.255
Stream size                              : 1.05 GiB (77%)
Writing library                          : XviD 1.2.0.dev47 (UTC 2006-11-01)

Audio
ID                                       : 1
Format                                   : AC-3
Format/Info                              : Audio Coding 3
Mode extension                           : CM (complete main)
Format settings, Endianness              : Big
Codec ID                                 : 2000
Duration                                 : 1h 37mn
Bit rate mode                            : Constant
Bit rate                                 : 448 Kbps
Channel(s)                               : 6 channels
Channel positions                        : Front: L C R, Side: L R, LFE
Sampling rate                            : 48.0 KHz
Bit depth                                : 16 bits
Compression mode                         : Lossy
Stream size                              : 312 MiB (22%)
Alignment                                : Split accross interleaves
Interleave, duration                     : 42 ms (1.00 video frame)
Interleave, preload duration             : 500 ms

